<?xml version="1.0" encoding="utf-8"?>

<!DOCTYPE svg PUBLIC "-//W3C//DTD SVG 1.1//EN" "http://www.w3.org/Graphics/SVG/1.1/DTD/svg11.dtd">
<svg version="1.1" id="Layer_1" xmlns="http://www.w3.org/2000/svg" xmlns:xlink="http://www.w3.org/1999/xlink" x="0px" y="0px"
 viewBox="0 0 1450 1829" enable-background="new 0 0 1450 1829" xml:space="preserve">
<g>
<path fill="#FFFFFF" d="M1147.7512,160.9942c3.86,11.57-2.7899,20.03-13.0399,24.72c-13.12,6.96-26.3101,13.73-39.4,20.74
c-5.5701,2.98-11.12,6-16.8,8.76c-0.34,0.17-13.23,5.12-8,6.84c13.92,7.95,55.0601,10.31,46.23,34.15
c-5.3899,14.53-20.1,8.27-30.5699,4.5c-12.49-4.51-25.13-8.63-37.55-13.35c-9.47-3.6-24.86-5.97-31.78-13.82
c-7.5-8.5-1.78-20.99,6.81-25.89c13.35-7.36,26.5601-15,39.99-22.22c5.66-3.03,26.7101-9.82,28.8301-15.12
c-14.8601-9.15-49.8-7.12-42.9501-31.66c0.02-0.06,0.04-0.13,0.0601-0.19c0.01-0.04,0.0299-0.08,0.0399-0.12
c0.0901-0.3,0.2201-0.7,0.3401-1.1c0.0199-0.04,0.0299-0.08,0.0399-0.11c5.01-13.93,19.53-7.98,29.8201-4.09
c11.36,4.28,22.88,8.15,34.34,12.3C1124.7612,149.1742,1140.2712,152.0442,1147.7512,160.9942z"/>
<path d="M1379.1713,1439.6241c1.9301,83.15,8.83,166.96-1.29,249.87c-2.15,17.66-5.12,37.46-11.98,54
c-6.37,15.36-12.63,36.34-27.0499,46.37c-30.9701,31.16-72.3,3.34-93.3701-23.9c-24.1299-31.22-32.0199-70.1799-38.2999-108.22
c-6.88-41.65-8.8-84.95-9.13-127.15c-0.66-85.5499,0.85-171.0199,0.02-256.59c-0.39-39.71-2.29-86.33-28.35-118.91
c-27.4301-34.2999-63.65-38.0399-104.54-26.5299c-18.59,5.24-37.6801,12.1599-56.98,13.72c-23.36,1.89-46.73,2.03-70.18,2.24
c-20.64,0.1799-41.4-0.73-61.92-2.97c-9.49-1.04-19.03-2.8301-28.62-2.67c-10.7,0.1801-21.49,4.73-32.28,5.9401
c-41.48,4.6799-84.43,6.24-126.18,6.3999c-19.89,0.0801-40.06,0.5601-59.52-4.22c-8.79-1.2-17.5-3.47-25.47-7.4299
c-11.3-5.6101-13.01-1.05-23.38,4.5299c-17.65,9.51-31.54,4.2101-49.09-1.37c-8.52-2.71-15.3,4.27-23.29,6.23
c-9.72,2.39-21.58,2.27-30.46-2.48c-10.67-5.72-11.36-3.38-22.12,1.41c-8.87,3.9399-18.58,6.01-28.29,5.9
c-9.16,0.08-17.27-4.91-24.54-9.91c-10.4-6.89-12.11-14.45-25.29-10.71c-39.86,11.3099-81.34-8.37-95.41-47.6801
c-6.8-19.03-7.26-41.79-3.06-61.39c2.27-10.59,6.32-14.78-2.67-22.04c-9.39-7.59-18.66-15.21-27.2-23.76
c-56.36-56.37-88.06-130.79-86.89-210.72c0.14-9.78-0.09-20.4,2.13-29.98c2.31-9.92,0.58-15.25-7.13-22.2401
c-15.85-16.21-32-31.48-45.92-49.56c-16.72-21.73-57.73-65.15-40.57-95.15c8.14-14.23,33.2-21.82,48.45-22.82
c21.08-1.39,42.29-5.02,63.53-6.54c21.06-1.5,42.22-1.6,63.33-2.0601c9.32-0.2,18.66-0.2,27.98-0.43
c4.92,0.38,17.92-16.24,22.07-19.61c62.14-50.6,137.68-87.78,216.19-104.39c20.46-4.33,41.19-7.03,61.93-9.56
c9.23-1.12,18.52-1.23,27.77-2.07c8.54-0.92,16.07-14.56,20.74-20.63c24.51-31.81,53.82-58.75,82.67-86.51
c8.16-7.86,17.33-14.57,26.9301-20.58c15.12-8.67,33.58-17.4,49.85-5.32c16.14,11.97,22.65,33.16,25.61,52.12
c6.47,41.52,12.59,83.18,17.56,124.94c1.01,8.47-1.72,23.53,6.62,27.23c8.13,3.62,15.37,8.92,22.27,14.47
c15.7,12.6,27.53,26.92,40.21,42.3c23.92,29.04,40.43,72.69,46.11,109.6c1.78,9.5699,3.9,19.1,4.84,28.81
c10.11-0.53,20.17,1.18,29.97,3.53c21.25,4.17,41.19,11.63,60.68,20.85c35.27,16.69,67.5,41.9,90.87,73.3701
c23.87,32.14,41.8201,69.89,50.26,109.14c3.88,21.12,6.88,42.25,8.61,63.66c0.8,9.91,0.77,19.86,0.87,29.79
c0.09,9.09,17.6801,15.15,25.25,20.04c68.34,44.11,120.8101,107.63,137.84,188.28c9.3101,44.08,14.89,88.33,20.1801,133.04
C1375.0212,1353.3842,1378.1913,1397.2441,1379.1713,1439.6241z M1342.0713,1626.3842c1.85-13.28,0.61-27.37,0.6-40.74
c0-5.9401,0.78-43.23-3.74-42.84c-0.01,0-0.01,0-0.01,0c-8.24,15.08-29.4301,21.1499-45.5699,20.45
c-10.8401-0.33-20.51,0.04-31.05-3.02c-8.61-2.5-21.46-12.71-30.02-12.1799c4.34,12.1699,3.27,26.2799,3.9301,39
c0.7799,14.9099,1.8999,29.77,3.37,44.63c1.21,12.1599,1.01,22.83,11.77,29.72c12.4199,7.89,28.0699,7.9299,42.2599,7.66
c12.63-0.24,25.63-2.15,37.0801-7.75c5.98-2.92,11.3099-4.03,11.2999-11.0701
C1341.9912,1642.2942,1341.8712,1634.3341,1342.0713,1626.3842z M1331.9213,1440.3541c10.21-3.98,7.78-7.5,6.9301-17.4399
c-0.7101-8.35-0.3601-16.78-0.75-25.15c-0.3501-7.47,0.45-17.1899-2.01-24.3c-6.6901-0.34-14.5701,4.04-20.9401,5.8401
c-14.24,4.01-30.51,4.71-45.17,2.49c-7.71-1.16-14.22-4.39-20.75-8.5c-4.75-2.98-10.0499-11.47-15.47-12.47
c3.6901,14.0599,3.2101,30.6599,2.86,45.11c-0.23,9.26-0.63,18.5199-0.48,27.7899c0.13,8.38,2.4601,7.4601,7.8301,12.38
C1263.8612,1464.3641,1310.0713,1448.8641,1331.9213,1440.3541z M1317.8313,1276.8641c9.01-8.52,8.76-10.84,8.1-22.77
c-0.5701-10.1499-2.04-20.24-4.04-30.2c-0.71-3.54-0.88-9.28-3.2999-12.2c-2.38-2.87-10.8,3.47-13.65,4.0499
c-24.8,4.9401-47.9,6.0801-73.11,7.26c1.0699,9.8101-1.5601,55.54,6.62,57.85c17.5499,4.9501,34.6599,10.98,52.97,6.1901
C1300.5012,1284.6642,1309.8013,1281.9941,1317.8313,1276.8641z M1285.1813,1118.1542c5.7999-5.46-26.59-47.9301-34.73-47.02
c-1.1,22.41-23.65,39.4-40.65,51.46c-10.37,7.3501-14.89,8.16-7.36,19.42c3.58,5.37,6.5699,11.1,9.62,16.79
c1.3099,3.23,11.52,0.37,13.64,0.0499C1248.2913,1155.5142,1270.7813,1134.7842,1285.1813,1118.1542z M1174.8413,1026.9442
c3.63-8.11,8.0199-12.92-0.6001-17.84c-6.9099-3.95-13.5499-8.38-20.6799-11.9301c-9.4301-5.55-6.51-11.71-5.5801-21.84
c0.7401-8.1,1.3701-16.06,1.17-24.21c-0.27-10.89,2.59-18.19-9.41-19.63c-13.9099-1.67-32.38-5.09-43.7-13.8
c-15.26-14.1,0.05-21.44,11.6-27.83c6.78-3.7599,12.4301-10.11,18.3101-15.1c9-7.65,12.13-8.87,7.87-20.69
c-3.38-9.43-3.4-9.29-11.92-6.11c-9.42,3.94-18.9,7.78-28.64,10.84c-9.6599,3.04-32,10.32-35.9399-4.28
c-3.4301-12.65,14.86-28.39,20.23-38.8c5.09-9.88,18.65-30.26,10.6799-39.7c-3.34-3.96-6.24-8.88-11.6299-9.69
c-5.4401,7.25-11.55,13.15-18.29,19.15c-11.67,10.39-23.8101,21.6801-38.9901,26.63c-21.4,6.9901-15.59-13.25-9.24-25.31
c8.06-15.31,9.59-33.85,11.15-50.83c0.3-3.28,0.58-6.55,0.85-9.82c-4.82-1.58-9.52-3.5-14.22-5.39c-7.53-3.04-16.46-7.75-24.8-6.81
c-3.12,25.03-10.08,54.17-28.08,72.99c-5.13,5.4-19.23,21.22-25.36,8.3c-5.71-12.04,1.37-28.13-0.85-40.84
c-14.28,31.86-23.68,64.52-43.44,93.94c-3.02,6.07,4.19,8.08,8.15,11.89c6.86,5.51,13,14.1,18.13,21.22
c10.16,14.11,16.88,30.99,21.43,47.71c2.44,8.99,6.23,40.35-10.57,22.69c-11.61-12.21-21.98-25.34-34.76-36.41
c-3.69-3.19-34.21-29.03-37.32-23.06c-8.16,12.68-22.95,21.79-29.98,34.85c17.66,11.85,32.82,21.53,43.82,40.75
c3.2,5.59,11.29,23.1201,2.39,27.44c-7.75,3.76-17.11-5.58-21.9-10.28c-13.67-13.4-28.11-22.21-46.4-28.24
c-11.73-3.86-13.97,0.47-22.93,7.71c-4.03,3.25-18.64,10.25-19.33,15.76c7.82,3.18,18.18,8.29,23.1,15.42
c4.8,6.9399,1.06,13.29-6.82,14.0699c-19.98,1.9901-40.05,3.15-59.94,6.02c-35.66,5.14-80.04,17.86-88.62,58.97
c-3.14,15.05-0.8,36.6801,20.39,34c19.09-2.4099,18.17-34,35.51-37.96c13.06-2.98,20.08,23.92,26.06,31.62
c14.04,18.05,31.74-0.13,42.78-10.98c5.19-5.11,12.3-14.65,19.7-16.5801c9.3-2.4199,10.94,6.9901,13.46,13.14
c8.13,19.8101,30.6,18.17,47.35,11.3201c8.25-3.37,16.03-7.86,23.13-13.23c4.49-2.9,15.29-15.92,20.35-7.9
c3.76,7.4199,4.34,16,3.42,24.15c9.77,4.34,25.54,3.1699,36.13,3.7999c40.81,2.4301,85.24,4.12,125.1-6.22
c16.09-4.17,28.8-13.04,45.91-15.09c9.72-1.16,19.53-0.8,29.2999-0.6801c5.77,0.84,21.86,5.9,26.42,0.5801
c9.85-11.4501,17.78-23.6101,24.84-36.89C1167.3812,1040.8842,1171.5613,1034.2642,1174.8413,1026.9442z M891.7612,625.9341
c4.83-2.88,8.53-3.61,6.8-9.57c-1.93-6.65-4.18-13.48-7.05-19.78c-3.39-7.45-11.4,1.11-16.72,4.26
c-6.46,4.13-13.43,7.36-20.34,10.63c-10.73,5.08-26.22,12.62-38.48,10.21c-16.62-3.28-0.27-27.06,4.27-34.17
c7.89-12.34,17.01-23.85,26.75-34.77c3.9-4.38,12.52-9.81,8.45-15.71c-3.71-5.37-9.03-10-13.83-14.37
c-10.63-9.69-23.25-17.87-36.2-24.08c-6.97-3.35-11.76-2.64-11.9-11.02c-0.14-8.42-0.48-16.8-1.43-25.17
c-3.69-32.26-8.26-64.44-11.79-96.71c-1.73-15.78-6.3-87.77-35.07-61.47c-29.45,27.92-56.99,58.14-85.13,87.38
c-13.81,14.34-28.29,28.1-41.36,43.14c-7,6.76-12.41,4.69-21.66,4c-9.18-0.69-26.8799-0.57-34.91,4.55
c19.34,15.9,35.53,41.96,40.54,66.46c5.42,18.79,1.4,64.07-27.95,45.29c-22.42-14.35-37.62-41.62-55.26-61.12
c-9.67-10.68-19.42-21.28-29.41-31.65c-8.39-8.7-25.3,1.12-35.54,4.83c3.16,8.26,11.7,15.95,16.78,23.28
c5.03,7.52,9.54,14.96,13.56,23.08c9.68,19.51,12.46,39.09,12.88,60.64c0.14,7.41,0.33,50.74-18.52,37.32
c-16.24-9.4-25.2-31.64-36.67-45.88c-12.64-15.68-26.78-30.85-41.7-44.38c-6.2-5.62-12.64-14.55-20.27-18.18
c-5.01-2.39-21.33,11.78-25.57,14.67c-1.78,1.21-18.46,12.16-15.7,13.77c7.49,6.2,15.61,11.61,22.99,17.97
c15.71,12.93,32.9,28.12,42,46.64c6.68,13.59,15.36,39.73,3.95,53.27c-13.74,12.39-32.64-15.26-39.87-23.94
c-11.63-13.97-27.34-26.09-42.11-36.6c-8.02-5.71-15.92-11.67-24.25-16.95c-12.23-7.7599-9.94,3.18-21.56,3.42
c-10.57,0.22-21.29-1.89-31.98-1.86c-11.04,0.02-22.08,0.28-33.12,0.61c-21.72,0.65-43.34,2.23-65.04,3.2
c-8.86,1.64-49.13-0.58-47.91,13.95c0.66,7.89,7.82,13.17,11.59,19.53c6.39,9.35,12.98,18.56,19.9,27.54
c12.19,15.82,25.46,30.65,38.8,45.5c6.27,6.98,12.32,14.13,18.62,21.08c4.55,5.03,16.23,13.61,14.54,21.22
c-9.43,42.35-10.36,85.29,3.75,126.87c3.23,9.5,6.95,19.1,11.1,28.22c1.62,3.56,3.64,6.92,5.56,10.33c4.06,5.98,7.86,3.75,14.52,3
c22.61-2.54,45.39-3.16,68.13-2.94c8.35,0.08,17.61-0.7401,24.76,4.5c7.01,5.49-5.24,13.84-9,16.68
c-16.24,13.94-36.4,22.08-53.34,34.87c4.23,6.82,28.86,32.73,36.76,25.22c12.57-11.93,27.52-21.37,42.92-29.29
c7.06-3.63,15.81-8.55,24.06-6.07c7.02,3.38,3.6,15.99,2.8,21.65c-1.4,10.02-5.37,20.17-9.03,29.55
c-1.62,4.18-3.55,8.23-4.91,12.51c-2.2,6.91,3.08,6.02,8.68,7.99c78.17,27.4901,167.02,22.46,246.32,3.02
c74.08-18.17,139.1-57.79,192.47-111.67c54.65-55.19,99.98-129.33,100.13-209.44c-14.2,1.25-28.57,1.93-42.83,1.53
c-9.92-0.28-38.98,0.66-42.21-12.43c-3.48-11.03,15.91-22.64,22.94-27.58C863.1713,642.9042,877.4012,634.5142,891.7612,625.9341z
 M566.3412,1104.6842c10.77-14.61,16.79-28.6801,9.03-46.55c-3.44-7.92-5.25-12.25-14.16-10.74c-10.23,1.72-20.54,2.88-30.87,3.63
c-18.97,1.38-38,1.41-57,1.14c-17.77-0.5601-35.64-1.63-53.09-5.14c-7.97-1.6-15.9-3.45-23.89-4.96
c-11.69-2-13.36,0.1699-23.09,6.6899c-6.79,4.5601-13.34,11.14-21.38,13.4c-11.85,3.33-10.4-8.37-10.35-16.36
c0.03-6.53,4.81-19.53-1.82-23.2401c-3.43-1.92-15.57-9.17-19.41-6.22c-8.66,8.92-8.96,34.89-8.03,46.3
c1.36,16.49,10.83,30.6901,27.23,35.4c16.08,4.61,36.33,0.76,51-6.59c4.96-2.2001,10.59-6.4401,13.8,0.0599
c2.79,7.46,8.49,15.41,14.66,20.36c15.55,12.48,26.79,1.99,37.53-10.65c5.77-6.7999,30.11-27.9399,30.23-5.8899
c-0.3,7.3899-0.62,12.6,5.34,17.98c6.89,6.22,18.06-2.54,24.53-5.74c5.53-2.28,12.82-42.7201,26.47-19.92
c2.59,6.96-3.1,16.99,3.45,21.52C556.1113,1115.7742,559.9113,1113.4042,566.3412,1104.6842z"/>
<path fill="#FFFFFF" d="M1342.6713,1585.6442c0.01,13.37,1.25,27.46-0.6,40.74c-0.2001,7.95-0.0801,15.91-0.0801,23.86
c0.01,7.04-5.3199,8.15-11.2999,11.0701c-11.4501,5.6-24.4501,7.51-37.0801,7.75c-14.1899,0.2699-29.84,0.23-42.2599-7.66
c-10.76-6.89-10.5601-17.5601-11.77-29.72c-1.4701-14.86-2.5901-29.7201-3.37-44.63c-0.66-12.7201,0.4099-26.8301-3.9301-39
c8.5601-0.53,21.41,9.6799,30.02,12.1799c10.54,3.0601,20.21,2.6901,31.05,3.02c16.1399,0.7,37.33-5.37,45.5699-20.45
c-2.76,5.0499,0.49,0,0.01,0C1343.4513,1542.4142,1342.6713,1579.7041,1342.6713,1585.6442z"/>
<path d="M1338.9313,1542.8042c0.48,0-2.77,5.0499-0.01,0C1338.9213,1542.8042,1338.9213,1542.8042,1338.9313,1542.8042z"/>
<path fill="#FFFFFF" d="M1338.8513,1422.9142c0.85,9.9399,3.2799,13.46-6.9301,17.4399c-21.85,8.51-68.0601,24.01-87.95,5.75
c-5.37-4.9199-7.7001-4-7.8301-12.38c-0.15-9.27,0.25-18.5299,0.48-27.7899c0.3501-14.4501,0.8301-31.05-2.86-45.11
c5.42,1,10.72,9.49,15.47,12.47c6.53,4.11,13.04,7.34,20.75,8.5c14.66,2.22,30.9301,1.52,45.17-2.49
c6.37-1.8,14.25-6.1801,20.9401-5.8401c2.46,7.1101,1.6599,16.8301,2.01,24.3
C1338.4912,1406.1342,1338.1412,1414.5642,1338.8513,1422.9142z"/>
<path fill="#FFFFFF" d="M1325.9313,1254.0941c0.66,11.9301,0.91,14.25-8.1,22.77c-8.03,5.13-17.3301,7.8-26.41,10.1801
c-18.3101,4.7899-35.42-1.24-52.97-6.1901c-8.1801-2.3099-5.55-48.0399-6.62-57.85c25.21-1.1799,48.3099-2.3199,73.11-7.26
c2.85-0.58,11.27-6.9199,13.65-4.0499c2.4199,2.9199,2.59,8.6599,3.2999,12.2
C1323.8912,1233.8541,1325.3612,1243.9442,1325.9313,1254.0941z"/>
<path fill="#FFFFFF" d="M1250.4513,1071.1342c8.14-0.91,40.5299,41.5601,34.73,47.02c-14.4,16.63-36.89,37.36-59.48,40.7
c-2.12,0.3201-12.3301,3.1801-13.64-0.0499c-3.05-5.6901-6.04-11.42-9.62-16.79c-7.53-11.26-3.01-12.0699,7.36-19.42
C1226.8013,1110.5342,1249.3513,1093.5442,1250.4513,1071.1342z"/>
<path d="M1050.2512,136.3042c-0.0699,0.23-0.1899,0.58-0.35,1.1c-0.0499,0.16-0.11,0.32-0.16,0.49c-0.1499,0.5-0.23,0.76-0.25,0.84
c0.01-0.02,0.02-0.05,0.03-0.09c-6.85,24.54,28.09,22.51,42.9501,31.66c-2.12,5.3-23.17,12.09-28.8301,15.12
c-13.4299,7.22-26.64,14.86-39.99,22.22c-8.59,4.9-14.31,17.39-6.81,25.89c6.92,7.85,22.31,10.22,31.78,13.82
c12.42,4.72,25.0601,8.84,37.55,13.35c10.47,3.77,25.1801,10.03,30.5699-4.5c8.8301-23.84-32.3099-26.2-46.23-34.15
c-5.23-1.72,7.66-6.67,8-6.84c5.6801-2.76,11.23-5.78,16.8-8.76c13.09-7.01,26.28-13.78,39.4-20.74
c10.25-4.69,16.8999-13.15,13.0399-24.72c-7.48-8.95-22.99-11.82-33.59-15.66c-11.46-4.15-22.98-8.02-34.34-12.3
c-10.29-3.89-24.8101-9.84-29.8201,4.09C1050.1013,136.8142,1050.1913,136.5142,1050.2512,136.3042z M1266.4012,137.0142
c28.23,70.18,3.55,157.06-60.24,199.16c-13.5,8.17-26.05,15.79-40.2,22.88c-17.8401,8.93-40.7001,12.1-60.4,12.99
c-40.55,1.84-76.85-8.05-110.57-30.56c-7.65-5.11-14.8-11.34-21.45-17.7c-6.86-6.57-7.93-12.3-17.3-8.18
c-11.61,5.09-47.11,7.83-32.5-14.65c4.81-7.41,12.88-10.98,18.15-17.64c-0.56-7.38-6.87-16.05-9.22-23.18
c-6.81-20.6-9.76-41.12-10.54-62.78c2.27-22.15,5.4399-40.57,12.8-61.55c8.12-23.15,24.2-40.88,39.65-59.24
c26.63-31.34,72.79-46.17,112.09-50.97c20.23-0.6,38.95-0.17,58.64,4.79c19.83,5,37.0599,13.51,54.24,24.26
C1230.6913,74.1442,1252.8213,103.2542,1266.4012,137.0142z M1152.5913,35.4142
C1152.7213,38.8742,1155.4213,33.8042,1152.5913,35.4142L1152.5913,35.4142z"/>
<path fill="#FFFFFF" d="M1174.2412,1009.1042c8.62,4.92,4.2301,9.73,0.6001,17.84c-3.28,7.3199-7.4601,13.9399-11.2101,20.99
c-7.0599,13.2799-14.99,25.4399-24.84,36.89c-4.5601,5.3199-20.65,0.2599-26.42-0.5801c-9.7699-0.12-19.58-0.48-29.2999,0.6801
c-17.11,2.0499-29.8201,10.9199-45.91,15.09c-39.86,10.34-84.29,8.65-125.1,6.22c-10.59-0.63-26.36,0.54-36.13-3.7999
c0.92-8.15,0.34-16.7301-3.42-24.15c-5.06-8.02-15.86,5-20.35,7.9c-7.1,5.37-14.88,9.86-23.13,13.23
c-16.75,6.85-39.22,8.49-47.35-11.3201c-2.52-6.1499-4.16-15.5599-13.46-13.14c-7.4,1.9301-14.51,11.4701-19.7,16.5801
c-11.04,10.85-28.74,29.03-42.78,10.98c-5.98-7.7-13-34.6-26.06-31.62c-17.34,3.96-16.42,35.55-35.51,37.96
c-21.19,2.6801-23.53-18.95-20.39-34c8.58-41.11,52.96-53.83,88.62-58.97c19.89-2.87,39.96-4.03,59.94-6.02
c7.88-0.78,11.62-7.13,6.82-14.0699c-4.92-7.13-15.28-12.2401-23.1-15.42c0.69-5.51,15.3-12.51,19.33-15.76
c8.96-7.24,11.2-11.5699,22.93-7.71c18.29,6.03,32.73,14.84,46.4,28.24c4.79,4.7,14.15,14.04,21.9,10.28
c8.9-4.3199,0.81-21.85-2.39-27.44c-11-19.22-26.16-28.9-43.82-40.75c7.03-13.06,21.82-22.17,29.98-34.85
c3.11-5.97,33.63,19.87,37.32,23.06c12.78,11.07,23.15,24.2,34.76,36.41c16.8,17.66,13.01-13.7,10.57-22.69
c-4.55-16.72-11.27-33.6-21.43-47.71c-5.13-7.12-11.27-15.71-18.13-21.22c-3.96-3.81-11.17-5.8199-8.15-11.89
c19.76-29.42,29.16-62.08,43.44-93.94c2.22,12.71-4.86,28.8,0.85,40.84c6.13,12.92,20.23-2.9,25.36-8.3
c18-18.82,24.96-47.96,28.08-72.99c8.34-0.94,17.27,3.77,24.8,6.81c4.7,1.89,9.4,3.81,14.22,5.39c-0.27,3.27-0.55,6.54-0.85,9.82
c-1.56,16.98-3.09,35.52-11.15,50.83c-6.35,12.06-12.16,32.3,9.24,25.31c15.18-4.95,27.32-16.24,38.9901-26.63
c6.74-6,12.85-11.9,18.29-19.15c5.3899,0.81,8.2899,5.73,11.6299,9.69c7.9701,9.44-5.59,29.82-10.6799,39.7
c-5.37,10.41-23.66,26.15-20.23,38.8c3.9399,14.6,26.28,7.32,35.9399,4.28c9.74-3.06,19.22-6.9,28.64-10.84
c8.52-3.18,8.54-3.32,11.92,6.11c4.26,11.82,1.13,13.04-7.87,20.69c-5.88,4.99-11.53,11.34-18.3101,15.1
c-11.5499,6.39-26.86,13.73-11.6,27.83c11.3199,8.71,29.79,12.13,43.7,13.8c12,1.44,9.14,8.74,9.41,19.63
c0.2001,8.15-0.4299,16.11-1.17,24.21c-0.9299,10.13-3.85,16.29,5.5801,21.84
C1160.6913,1000.7242,1167.3313,1005.1542,1174.2412,1009.1042z"/>
<path d="M1049.9012,137.4042c0.02-0.06,0.04-0.12,0.0601-0.17c-0.12,0.4-0.25,0.8-0.3401,1.1c0.03-0.14,0.0701-0.29,0.12-0.44
C1049.7913,137.7242,1049.8513,137.5642,1049.9012,137.4042z"/>
<path fill="#FFFFFF" d="M540.0313,704.4042c0.26-0.06,1.32-0.36,3.71-1.03c-15.71,4.61-63.69,25.73-25.21,36.61
c8.33,2.36,16.02,2.57,24.61,2.65c2.9901,5.09,5,10.69,6.54,16.37c1.17,4.32,2.11,9.17,2.51,14.12c0.58,7.32-0.02,14.83-2.82,21.09
c-2.6,5.8-8.04,10.85-13.88,13.3c-5.26,2.21-12.65-0.78-16.27,3.96c-9.21,12.06,6.79,13.46,15,11.31
c12.98-3.4,21.96-10.91,27.95-22.7c4.38-8.01,1.67-18.02,0.97-27.17c-0.18-2.39-0.23-4.73,0.03-6.95
c6.02,1.15,11.71,7.59,17.24,10.33c5.34,2.25,11.19,3.17,16.97,2.91c11.9399-0.53,22.4399-6.13,32.22-12.52
c6-3.92,18.91-14.3,6.23-19.97c-5.44-1.96-19.86,12.62-24.27,15.88c-21.33,13.89-43.7401-8.15-54.89-24.39
c-5.5-8.02,5.11-20.54,8.51-28.08c6.07-11.2-15.71-8.32-20.61-6.98c0.36-0.11,0.58-0.18,0.6801-0.22
C544.6412,703.0742,540.5712,704.2441,540.0313,704.4042z M735.0912,383.5641c0.19-0.12,1.51-1.08,4.84-3.59
c-16.52,12.51-32.02,26.46-47.97,39.65c-5.11,4.23-19.18,9.25-7.31,14.08c8.81,3.58,18.26,5.64,27.37,8.28
c10.79,3.13,22.07,7.88,33.14,9.71c9.26,1.54,3.73-13.37,2.91-18.55c-1.9-12-3.41-24.16-4.7-36.25
c-0.19-1.82,0.07-19.78-2.62-17.55C741.1913,378.8342,735.4213,383.2442,735.0912,383.5641z M898.5613,616.3641
c1.73,5.96-1.97,6.69-6.8,9.57c-14.36,8.58-28.59,16.97-42.3,26.58c-7.03,4.94-26.42,16.55-22.94,27.58
c3.23,13.09,32.29,12.15,42.21,12.43c14.26,0.4,28.63-0.28,42.83-1.53c-0.15,80.11-45.48,154.25-100.13,209.44
c-53.37,53.88-118.39,93.5-192.47,111.67c-79.3,19.44-168.15,24.47-246.32-3.02c-5.6-1.97-10.88-1.08-8.68-7.99
c1.36-4.28,3.29-8.33,4.91-12.51c3.66-9.38,7.63-19.53,9.03-29.55c0.8-5.66,4.22-18.27-2.8-21.65c-8.25-2.48-17,2.44-24.06,6.07
c-15.4,7.92-30.35,17.36-42.92,29.29c-7.9,7.51-32.53-18.4-36.76-25.22c16.94-12.79,37.1-20.93,53.34-34.87
c3.76-2.84,16.01-11.19,9-16.68c-7.15-5.2401-16.41-4.42-24.76-4.5c-22.74-0.22-45.52,0.4-68.13,2.94
c-6.66,0.75-10.46,2.98-14.52-3c-1.92-3.41-3.94-6.77-5.56-10.33c-4.15-9.12-7.87-18.72-11.1-28.22
c-14.11-41.58-13.18-84.52-3.75-126.87c1.69-7.61-9.99-16.19-14.54-21.22c-6.3-6.95-12.35-14.1-18.62-21.08
c-13.34-14.85-26.61-29.68-38.8-45.5c-6.92-8.98-13.51-18.19-19.9-27.54c-3.77-6.36-10.93-11.64-11.59-19.53
c-1.22-14.53,39.05-12.31,47.91-13.95c21.7-0.97,43.32-2.55,65.04-3.2c11.04-0.33,22.08-0.59,33.12-0.61
c10.69-0.03,21.41,2.08,31.98,1.86c11.62-0.2401,9.33-11.18,21.56-3.42c8.33,5.28,16.23,11.2401,24.25,16.95
c14.77,10.51,30.48,22.63,42.11,36.6c7.23,8.68,26.13,36.33,39.87,23.94c11.41-13.54,2.73-39.6801-3.95-53.27
c-9.1-18.52-26.29-33.71-42-46.64c-7.38-6.36-15.5-11.77-22.99-17.97c-2.76-1.61,13.92-12.56,15.7-13.77
c4.24-2.89,20.56-17.06,25.57-14.67c7.63,3.63,14.07,12.56,20.27,18.18c14.92,13.53,29.06,28.7,41.7,44.38
c11.47,14.24,20.43,36.48,36.67,45.88c18.85,13.42,18.66-29.91,18.52-37.32c-0.42-21.55-3.2-41.13-12.88-60.64
c-4.02-8.12-8.53-15.56-13.56-23.08c-5.08-7.33-13.62-15.02-16.78-23.28c10.24-3.71,27.15-13.53,35.54-4.83
c9.99,10.37,19.74,20.97,29.41,31.65c17.64,19.5,32.84,46.77,55.26,61.12c29.35,18.78,33.37-26.5,27.95-45.29
c-5.0099-24.5-21.2-50.56-40.54-66.46c8.03-5.12,25.73-5.24,34.91-4.55c9.25,0.69,14.66,2.76,21.66-4
c13.07-15.04,27.55-28.8,41.36-43.14c28.14-29.24,55.68-59.46,85.13-87.38c28.77-26.3,33.34,45.69,35.07,61.47
c3.53,32.27,8.1,64.45,11.79,96.71c0.95,8.37,1.29,16.75,1.43,25.17c0.14,8.38,4.9301,7.67,11.9,11.02
c12.95,6.21,25.57,14.39,36.2,24.08c4.8,4.37,10.12,9,13.83,14.37c4.0699,5.9-4.55,11.33-8.45,15.71
c-9.74,10.92-18.86,22.43-26.75,34.77c-4.54,7.11-20.89,30.89-4.27,34.17c12.26,2.41,27.75-5.13,38.48-10.21
c6.91-3.27,13.88-6.5,20.34-10.63c5.32-3.15,13.33-11.71,16.72-4.26C894.3813,602.8842,896.6313,609.7142,898.5613,616.3641z
 M762.6913,592.3242c1.17-7.17,6.12-11.06,0.33-18.42c-4.48-5.69-11.71-6.47-18.33-5.18c-6.69,2.7599-6.9901,11.41-9.17,17.19
c-2.64,7.02-7.56,13.14-12.66,18.52c-10.77,11.33-26.71,21.36-42.54,23.02c-7.33,0.77-18.1299,1.69-23.61-4.43
c-4.29-4.43-11.61-7-17.54-4.38c-13.95,6.16-8.71,22.57,1.52,28.81c31.43,19.16,68.44,5.43,94.85-15.65
C747.4012,622.3342,760.1613,607.7642,762.6913,592.3242z M416.7813,771.6042c0.8-6.3701,5.08-9.15,2.27-16.09
c-3.01-7.45-10.64-10.69-18.4-8.94c3.51-0.79-3.21,0.48,0,0c-8.37,1.25-9.53,12.67-11.95,19.07c-2.72,7.18-7.62,13.2-13.02,18.63
c-10.39,10.45-28.33,21.89-43.51,22.02c-8.17,0.08-18.05,1.24-23.84-5.9c-3.56-4.48-11.5-6.13-16.48-2.55
c-12.75,9.13-6.71,23.6,4.89,30.14c30.97,15.2401,66.2,5.9,91.71-16.3C399.6812,801.9142,414.8213,787.1342,416.7813,771.6042z
 M223.1513,638.3641c2.45-8.13,8.52-18.78,7.78-27.46c-23.02-1.07-45.87,3.62-68.89,2.6c0,0.01,0,0.03,0,0.04
c-0.34,9.39,20.92,24.47,27.05,30.66c4.7,4.75,9.39,9.51,14.02,14.34c2.92,3.04,5.65,8.95,9.21,11.18
C217.1113,659.7142,219.9613,648.9442,223.1513,638.3641z"/>
<path d="M763.0212,573.9042c5.79,7.36,0.84,11.25-0.33,18.42c-2.53,15.44-15.29,30.01-27.15,39.48
c-26.41,21.08-63.42,34.81-94.85,15.65c-10.23-6.24-15.47-22.65-1.52-28.81c5.93-2.62,13.25-0.05,17.54,4.38
c5.48,6.12,16.28,5.2,23.61,4.43c15.83-1.66,31.77-11.69,42.54-23.02c5.1-5.38,10.02-11.5,12.66-18.52
c2.18-5.78,2.48-14.4301,9.17-17.19C751.3113,567.4341,758.5413,568.2142,763.0212,573.9042z"/>
<path d="M748.0712,433.1442c0.82,5.18,6.35,20.09-2.91,18.55c-11.07-1.83-22.35-6.58-33.14-9.71c-9.11-2.64-18.56-4.7-27.37-8.28
c-11.87-4.83,2.2-9.85,7.31-14.08c15.95-13.19,31.45-27.14,47.97-39.65c0.25-0.19,0.49-0.37,0.74-0.56
c0.03-0.03,0.05-0.05,0.08-0.07c2.69-2.23,2.43,15.73,2.62,17.55C744.6613,408.9842,746.1713,421.1442,748.0712,433.1442z"/>
<path d="M735.0912,383.5641c0.33-0.32,6.1-4.73,5.66-4.22c-0.03,0.02-0.05,0.04-0.08,0.07c-0.25,0.19-0.49,0.37-0.74,0.56
C736.6013,382.4842,735.2813,383.4442,735.0912,383.5641z"/>
<path fill="#FFFFFF" d="M575.3713,1058.1342c7.76,17.87,1.74,31.9401-9.03,46.55c-6.43,8.72-10.23,11.09-19.82,4.48
c-6.55-4.53-0.86-14.5601-3.45-21.52c-13.65-22.8-20.9399,17.64-26.47,19.92c-6.47,3.2-17.64,11.96-24.53,5.74
c-5.96-5.38-5.64-10.5901-5.34-17.98c-0.12-22.05-24.46-0.91-30.23,5.8899c-10.74,12.64-21.98,23.13-37.53,10.65
c-6.17-4.95-11.87-12.9-14.66-20.36c-3.21-6.5-8.84-2.26-13.8-0.0599c-14.67,7.35-34.92,11.2-51,6.59
c-16.4-4.71-25.87-18.91-27.23-35.4c-0.93-11.41-0.63-37.38,8.03-46.3c3.84-2.95,15.98,4.3,19.41,6.22
c6.63,3.71,1.85,16.71,1.82,23.2401c-0.05,7.99-1.5,19.6899,10.35,16.36c8.04-2.26,14.59-8.84,21.38-13.4
c9.73-6.52,11.4-8.6899,23.09-6.6899c7.99,1.51,15.92,3.36,23.89,4.96c17.45,3.51,35.32,4.58,53.09,5.14
c19,0.27,38.03,0.24,57-1.14c10.33-0.75,20.64-1.91,30.87-3.63C570.1213,1045.8842,571.9313,1050.2141,575.3713,1058.1342z"/>
<path d="M635.8313,746.7142c-5.4401-1.96-19.8601,12.62-24.27,15.88c-21.3301,13.89-43.74-8.15-54.89-24.39
c-5.5-8.02,5.11-20.54,8.51-28.08c6.0699-11.2-15.7101-8.32-20.61-6.98c-0.0901,0.02-0.17,0.05-0.25,0.07
c-0.1899,0.05-0.38,0.11-0.5801,0.16c-15.71,4.61-63.6899,25.73-25.21,36.61c8.3301,2.36,16.02,2.57,24.61,2.65
c2.9901,5.09,5,10.69,6.54,16.37c1.17,4.32,2.11,9.17,2.51,14.12c0.58,7.32-0.02,14.83-2.8199,21.09
c-2.6001,5.8-8.04,10.85-13.8801,13.3c-5.26,2.21-12.6499-0.78-16.27,3.96c-9.21,12.06,6.79,13.46,15,11.31
c12.98-3.4,21.9601-10.91,27.9501-22.7c4.38-8.01,1.67-18.02,0.97-27.17c-0.1801-2.39-0.23-4.73,0.03-6.95
c6.02,1.15,11.7101,7.59,17.24,10.33c5.34,2.25,11.1901,3.17,16.9701,2.91c11.9399-0.53,22.4399-6.13,32.22-12.52
C635.6013,762.7642,648.5112,752.3842,635.8313,746.7142z"/>
<path d="M545.2513,702.9241c-0.1,0.04-0.32,0.11-0.6801,0.22c-0.09,0.02-0.17,0.05-0.25,0.07c-0.1899,0.05-0.3799,0.11-0.58,0.16
c-2.39,0.67-3.45,0.97-3.71,1.03C540.5712,704.2441,544.6412,703.0742,545.2513,702.9241z"/>
<path d="M419.0513,755.5142c2.81,6.94-1.47,9.72-2.27,16.09c-1.96,15.53-17.1,30.31-28.33,40.08
c-25.51,22.2-60.74,31.54-91.71,16.3c-11.6-6.54-17.64-21.0099-4.89-30.14c4.98-3.58,12.92-1.93,16.48,2.55
c5.79,7.14,15.67,5.98,23.84,5.9c15.18-0.13,33.12-11.57,43.51-22.02c5.4-5.43,10.3-11.45,13.02-18.63
c2.42-6.4,3.58-17.82,11.95-19.07C408.4113,744.8242,416.0413,748.0641,419.0513,755.5142z"/>
<path d="M400.6512,746.5742C397.4413,747.0541,404.1613,745.7842,400.6512,746.5742L400.6512,746.5742z"/>
<path d="M230.9313,610.9042c0.74,8.68-5.33,19.33-7.78,27.46c-3.19,10.58-6.04,21.35-10.83,31.36c-3.56-2.23-6.29-8.14-9.21-11.18
c-4.63-4.83-9.32-9.59-14.02-14.34c-6.13-6.19-27.39-21.27-27.05-30.66c0,3.96,22.95,0.98,0-0.04
C185.0613,614.5242,207.9113,609.8342,230.9313,610.9042z"/>
<path d="M162.0413,613.5042c22.95,1.02,0,4,0,0.04C162.0413,613.5342,162.0413,613.5142,162.0413,613.5042z"/>
</g>
</svg>
